<svg width="30" height="30" viewBox="0 0 30 30" fill="none" xmlns="http://www.w3.org/2000/svg">
<path d="M7 16H6V14H7C7.26522 14 7.51957 14.1054 7.70711 14.2929C7.89464 14.4804 8 14.7348 8 15C8 15.2652 7.89464 15.5196 7.70711 15.7071C7.51957 15.8946 7.26522 16 7 16ZM14 20V14H15C15.2652 14 15.5196 14.1054 15.7071 14.2929C15.8946 14.4804 16 14.7348 16 15V19C16 19.2652 15.8946 19.5196 15.7071 19.7071C15.5196 19.8946 15.2652 20 15 20H14Z" fill="black"/>
<path fill-rule="evenodd" clip-rule="evenodd" d="M2 3C2 2.20435 2.31607 1.44129 2.87868 0.87868C3.44129 0.31607 4.20435 0 5 0L21.414 0L28 6.586V27C28 27.7956 27.6839 28.5587 27.1213 29.1213C26.5587 29.6839 25.7956 30 25 30H5C4.20435 30 3.44129 29.6839 2.87868 29.1213C2.31607 28.5587 2 27.7956 2 27V3ZM7 12H4V22H6V18H7C7.79565 18 8.55871 17.6839 9.12132 17.1213C9.68393 16.5587 10 15.7956 10 15C10 14.2044 9.68393 13.4413 9.12132 12.8787C8.55871 12.3161 7.79565 12 7 12ZM15 12H12V22H15C15.7956 22 16.5587 21.6839 17.1213 21.1213C17.6839 20.5587 18 19.7956 18 19V15C18 14.2044 17.6839 13.4413 17.1213 12.8787C16.5587 12.3161 15.7956 12 15 12ZM20 22V12H26V14H22V16H24V18H22V22H20Z" fill="black"/>
</svg>
