<svg width="22" height="22" viewBox="0 0 22 22" fill="none" xmlns="http://www.w3.org/2000/svg">
<path d="M1 11H4.51351C5.08695 11 5.63691 11.2278 6.04239 11.6333C6.44788 12.0388 6.67568 12.5887 6.67568 13.1622C6.67568 13.7356 6.90347 14.2856 7.30896 14.691C7.71444 15.0965 8.2644 15.3243 8.83784 15.3243H13.1622C13.7356 15.3243 14.2856 15.0965 14.691 14.691C15.0965 14.2856 15.3243 13.7356 15.3243 13.1622C15.3243 12.5887 15.5521 12.0388 15.9576 11.6333C16.3631 11.2278 16.913 11 17.4865 11H21" stroke="black" stroke-width="1.5" stroke-linecap="round" stroke-linejoin="round"/>
<path d="M14.5135 1H7.48649C5.76616 1 4.1163 1.6834 2.89985 2.89985C1.6834 4.1163 1 5.76616 1 7.48649V14.5135C1 16.2338 1.6834 17.8837 2.89985 19.1002C4.1163 20.3166 5.76616 21 7.48649 21H14.5135C16.2338 21 17.8837 20.3166 19.1002 19.1002C20.3166 17.8837 21 16.2338 21 14.5135V7.48649C21 5.76616 20.3166 4.1163 19.1002 2.89985C17.8837 1.6834 16.2338 1 14.5135 1Z" stroke="black" stroke-width="1.5"/>
</svg>
